<?xml version="1.0" encoding="utf-8"?>
<!-- Generator: Adobe Illustrator 23.0.1, SVG Export Plug-In . SVG Version: 6.00 Build 0)  -->
<svg version="1.1" id="Layer_1" xmlns="http://www.w3.org/2000/svg" xmlns:xlink="http://www.w3.org/1999/xlink" x="0px" y="0px"
	 viewBox="0 0 154.2 65" style="enable-background:new 0 0 154.2 65;" xml:space="preserve">
<style type="text/css">
	.st0{fill:#FFFFFF;}
	.st1{fill:url(#SVGID_1_);}
	.st2{opacity:3.000000e-02;enable-background:new    ;}
	.st3{fill:none;}
	.st4{fill:#0EC77C;}
	.st5{opacity:0.1;fill:#FFFFFF;enable-background:new    ;}
	.st6{opacity:0.1;}
</style>
<g>
	<path class="st0" d="M71.9,33.7c0.6,0.8,0.9,1.8,0.9,2.9c0,1.6-0.6,2.8-1.8,3.7c-1.2,0.9-2.7,1.4-4.8,1.4h-6.9
		c-0.6,0-1.1-0.2-1.5-0.5c-0.3-0.3-0.5-0.8-0.5-1.5V24.9c0-0.6,0.2-1.1,0.5-1.5c0.3-0.3,0.8-0.5,1.5-0.5h6.6c2,0,3.5,0.4,4.6,1.3
		c1.2,0.9,1.7,2.1,1.7,3.5c0,1-0.3,1.9-0.8,2.5c-0.5,0.7-1.3,1.3-2.1,1.6C70.4,32.4,71.3,32.9,71.9,33.7z M61.3,30.6h3.9
		c1.1,0,1.9-0.2,2.3-0.6c0.5-0.4,0.8-0.9,0.8-1.7c0-0.8-0.3-1.4-0.8-1.7c-0.5-0.4-1.3-0.6-2.3-0.6h-3.9V30.6z M68.1,38
		c0.5-0.4,0.8-1,0.8-1.8c0-0.8-0.3-1.5-0.8-1.9s-1.3-0.6-2.3-0.6h-4.4v4.8h4.4C66.8,38.6,67.6,38.4,68.1,38z"/>
	<path class="st0" d="M87.2,28.9c0.4,0.3,0.6,0.8,0.6,1.4V40c0,0.6-0.2,1-0.6,1.4c-0.4,0.3-0.9,0.5-1.5,0.5c-0.6,0-1-0.2-1.4-0.5
		c-0.3-0.3-0.5-0.8-0.5-1.3v-0.2c-0.4,0.7-1,1.2-1.6,1.6c-0.7,0.4-1.4,0.5-2.2,0.5c-1.7,0-2.8-0.5-3.7-1.4c-0.8-0.9-1.2-2.2-1.2-4.1
		v-6.2c0-0.6,0.2-1.1,0.6-1.4c0.4-0.3,0.9-0.5,1.5-0.5c0.6,0,1.1,0.2,1.5,0.5c0.4,0.3,0.5,0.8,0.5,1.4v6.2c0,0.8,0.2,1.4,0.5,1.8
		c0.3,0.4,0.8,0.6,1.5,0.6c0.8,0,1.4-0.3,1.9-0.8s0.7-1.3,0.7-2.1v-5.6c0-0.6,0.2-1.1,0.5-1.4c0.4-0.3,0.9-0.5,1.5-0.5
		C86.4,28.4,86.9,28.6,87.2,28.9z"/>
	<path class="st0" d="M93,41.6c-0.8-0.2-1.5-0.5-2.1-0.9c-0.3-0.2-0.5-0.4-0.6-0.7c-0.1-0.3-0.2-0.6-0.2-0.9c0-0.4,0.1-0.8,0.4-1
		c0.2-0.3,0.5-0.4,0.9-0.4c0.2,0,0.5,0,0.7,0.1s0.5,0.2,0.7,0.3c0.5,0.2,1,0.4,1.5,0.6c0.5,0.1,1.1,0.2,1.8,0.2
		c0.6,0,1.1-0.1,1.5-0.3c0.4-0.2,0.5-0.5,0.5-0.8s-0.1-0.5-0.2-0.6c-0.2-0.2-0.4-0.3-0.9-0.4c-0.5-0.1-1.1-0.3-2-0.5
		c-1.6-0.3-2.7-0.8-3.4-1.4c-0.7-0.6-1.1-1.5-1.1-2.5c0-0.8,0.2-1.5,0.7-2.1c0.5-0.7,1.2-1.2,2-1.5c0.9-0.4,1.8-0.6,2.8-0.6
		c0.8,0,1.5,0.1,2.2,0.3c0.7,0.2,1.4,0.5,2,0.8c0.6,0.3,0.8,0.8,0.8,1.5c0,0.4-0.1,0.8-0.4,1.1c-0.2,0.3-0.5,0.4-0.9,0.4
		s-0.9-0.2-1.5-0.5c-0.5-0.2-0.9-0.4-1.2-0.5c-0.4-0.1-0.8-0.2-1.3-0.2c-0.6,0-1,0.1-1.3,0.3c-0.3,0.2-0.5,0.5-0.5,0.9
		c0,0.4,0.2,0.7,0.6,0.9c0.4,0.2,1.1,0.4,2.1,0.6c1.2,0.2,2.1,0.5,2.7,0.9c0.7,0.3,1.2,0.8,1.5,1.3c0.3,0.5,0.5,1.1,0.5,1.9
		c0,1.3-0.5,2.2-1.6,3s-2.4,1.1-4.1,1.1C94.7,41.9,93.7,41.8,93,41.6z"/>
	<path class="st0" d="M122.1,23.5c0.4,0.4,0.6,0.9,0.6,1.5v15c0,0.6-0.2,1.1-0.5,1.4c-0.3,0.3-0.8,0.5-1.4,0.5c-0.5,0-1-0.2-1.3-0.5
		c-0.3-0.3-0.5-0.8-0.5-1.4v-9.4l-3.7,7c-0.3,0.5-0.5,0.8-0.8,1c-0.3,0.2-0.7,0.3-1.1,0.3c-0.4,0-0.7-0.1-1.1-0.3
		c-0.3-0.2-0.6-0.6-0.8-1l-3.7-6.9v9.2c0,0.6-0.2,1-0.5,1.4c-0.3,0.4-0.8,0.5-1.4,0.5c-0.5,0-1-0.2-1.3-0.5
		c-0.3-0.3-0.5-0.8-0.5-1.4v-15c0-0.6,0.2-1.1,0.6-1.5c0.4-0.4,0.9-0.6,1.5-0.6c0.9,0,1.5,0.5,2,1.4l5.4,10.2l5.4-10.2
		c0.5-0.9,1.1-1.4,2-1.4C121.2,22.9,121.7,23.1,122.1,23.5z"/>
	<path class="st0" d="M136.2,29.8c0.9,0.9,1.4,2.3,1.4,4.3v6c0,0.6-0.2,1.1-0.5,1.4c-0.3,0.3-0.8,0.5-1.4,0.5c-0.6,0-1-0.2-1.4-0.5
		c-0.4-0.3-0.5-0.8-0.5-1.4v-0.2c-0.3,0.7-0.7,1.2-1.4,1.6c-0.6,0.4-1.4,0.6-2.1,0.6c-0.9,0-1.7-0.2-2.4-0.5
		c-0.7-0.4-1.3-0.9-1.7-1.5c-0.4-0.7-0.6-1.4-0.6-2.1c0-1,0.2-1.7,0.7-2.2s1.3-1,2.3-1.2c1.1-0.2,2.5-0.4,4.4-0.4h0.7v-0.5
		c0-0.8-0.2-1.3-0.5-1.7c-0.3-0.3-0.9-0.5-1.7-0.5c-0.8,0-1.9,0.3-3.3,0.8c-0.4,0.2-0.8,0.3-1.1,0.3c-0.4,0-0.7-0.1-0.9-0.4
		c-0.2-0.3-0.4-0.6-0.4-1.1c0-0.4,0.1-0.7,0.2-0.9c0.2-0.2,0.4-0.5,0.8-0.7c0.6-0.3,1.4-0.6,2.2-0.8c0.9-0.2,1.8-0.3,2.6-0.3
		C133.8,28.3,135.2,28.8,136.2,29.8z M133,38.4c0.5-0.5,0.7-1.2,0.7-2.1v-0.5h-0.5c-1.5,0-2.4,0.1-3,0.4c-0.6,0.2-0.9,0.7-0.9,1.3
		c0,0.5,0.2,0.9,0.5,1.2c0.3,0.3,0.8,0.5,1.3,0.5C131.9,39.2,132.5,38.9,133,38.4z"/>
	<path class="st0" d="M151.5,29.2c0.9,0.6,1.6,1.4,2.1,2.4c0.5,1.1,0.7,2.2,0.7,3.5c0,1.4-0.2,2.5-0.7,3.5c-0.5,1-1.2,1.8-2.1,2.3
		c-0.9,0.6-1.9,0.8-3,0.8c-0.9,0-1.7-0.2-2.4-0.6c-0.7-0.4-1.3-0.9-1.7-1.6v5c0,0.5-0.2,1-0.5,1.3c-0.4,0.3-0.8,0.5-1.4,0.5
		c-0.6,0-1.1-0.2-1.5-0.5c-0.4-0.3-0.6-0.8-0.6-1.4V30.3c0-0.6,0.2-1,0.6-1.4c0.4-0.4,0.9-0.5,1.5-0.5s1.1,0.2,1.5,0.5
		s0.5,0.8,0.5,1.4v0.2c0.4-0.7,1-1.2,1.7-1.6c0.7-0.4,1.6-0.6,2.4-0.6C149.6,28.3,150.7,28.6,151.5,29.2z M149.5,37.9
		c0.5-0.6,0.8-1.6,0.8-2.7c0-1.2-0.3-2.1-0.8-2.8c-0.5-0.7-1.3-1-2.1-1c-1,0-1.7,0.3-2.1,1s-0.8,1.6-0.8,2.7c0,1.2,0.3,2.1,0.8,2.7
		c0.5,0.7,1.3,1,2.1,1C148.4,38.9,149.1,38.6,149.5,37.9z"/>
</g>
<g id="Group_578" transform="translate(241.111 87.111)">
	<g id="Path_219">
		<linearGradient id="SVGID_1_" gradientUnits="userSpaceOnUse" x1="-216.6702" y1="-30.0861" x2="-216.6702" y2="-78.2527">
			<stop  offset="0" style="stop-color:#10AF7E"/>
			<stop  offset="1" style="stop-color:#00DB7E"/>
		</linearGradient>
		<path class="st1" d="M-206.8-30.6h-19.8c-7.7,0-14-6.3-14-14v-19.8c0-7.7,6.3-14,14-14h19.8c7.7,0,14,6.3,14,14l0,0v19.8
			C-192.8-36.9-199-30.6-206.8-30.6z"/>
		<path class="st0" d="M-206.8-30.1h-19.8c-8,0-14.5-6.5-14.5-14.5v-19.8c0-8,6.5-14.5,14.5-14.5h19.8c8,0,14.5,6.5,14.5,14.5v19.8
			C-192.3-36.7-198.8-30.1-206.8-30.1z M-226.6-77.9c-7.4,0-13.5,6.1-13.5,13.5v19.8c0,7.4,6.1,13.5,13.5,13.5h19.8
			c7.4,0,13.5-6.1,13.5-13.5v-19.8c0-7.4-6.1-13.5-13.5-13.5H-226.6z"/>
	</g>
	<path id="Path_220" class="st2" d="M-234-49.9l19.2,19.2h8c7.7,0,14-6.3,14-14v-1.3l-5.7-5.7l-20.4-6L-234-49.9z"/>
	<path id="Path_221" class="st3" d="M-208.4-60.3"/>
	<path id="Path_222" class="st3" d="M-208.4-65.3"/>
	<path id="Path_223" class="st4" d="M-208.4-60.3c0,0.2,0.1,0.3,0.3,0.3h0.1C-208.3-59.9-208.4-60.1-208.4-60.3z"/>
	<path id="Path_224" class="st4" d="M-208.1-65.6L-208.1-65.6c-0.2,0-0.3,0.1-0.3,0.3C-208.4-65.4-208.3-65.6-208.1-65.6
		C-208.1-65.6-208.1-65.6-208.1-65.6z"/>
	<g id="Group_574" transform="translate(12.233 25.42)">
		<g id="Group_572" transform="translate(0 0)">
			<circle id="Ellipse_27" class="st5" cx="-236.8" cy="-74.7" r="3.2"/>
			<path id="Path_225" class="st5" d="M-220.7-77.9c-1.7-0.1-3.3,1.2-3.4,2.9s1.2,3.3,2.9,3.4c1.7,0.1,3.3-1.2,3.4-2.9
				c0-0.2,0-0.3,0-0.5C-217.9-76.5-219.2-77.7-220.7-77.9z"/>
		</g>
		<g id="Group_573" transform="translate(2.464 2.463)">
			<circle id="Ellipse_28" class="st0" cx="-239.3" cy="-77.2" r="1.2"/>
			<circle id="Ellipse_29" class="st0" cx="-223.4" cy="-77.2" r="1.2"/>
		</g>
	</g>
	<g id="Group_575" transform="translate(6.859 12.812)" class="st6">
		<path id="Path_226" class="st0" d="M-234.2-78.4h-5.9c-0.2,0-0.4,0.1-0.4,0.3v7.4c0,0.1,0.1,0.2,0.2,0.2h1.9
			c2.5,0,4.5-1.5,4.5-3.3v-4.5C-234-78.4-234.1-78.4-234.2-78.4z"/>
		<path id="Path_227" class="st0" d="M-225.5-78.4h-6.9c-0.2,0-0.3,0.2-0.3,0.3c0,0,0,0,0,0v5c0,0.2,0.2,0.3,0.3,0.3c0,0,0,0,0,0
			h6.9c0.2,0,0.3-0.2,0.3-0.3c0,0,0,0,0,0v-5C-225.2-78.3-225.4-78.4-225.5-78.4z"/>
		<path id="Path_228" class="st0" d="M-216.8-78.4h-6.9c-0.2,0-0.3,0.2-0.3,0.3c0,0,0,0,0,0v5c0,0.2,0.2,0.3,0.3,0.3c0,0,0,0,0,0
			h6.9c0.2,0,0.3-0.2,0.3-0.3c0,0,0,0,0,0v-5C-216.4-78.3-216.6-78.4-216.8-78.4C-216.8-78.4-216.8-78.4-216.8-78.4z"/>
		<path id="Path_229" class="st0" d="M-209.8-78.4h-5.1c-0.2,0-0.3,0.2-0.3,0.3c0,0,0,0,0,0l0,0v5l0,0c0,0.2,0.2,0.3,0.3,0.3
			c0,0,0,0,0,0h5.1c0.1,0,0.3-0.1,0.3-0.3v-5C-209.6-78.2-209.7-78.4-209.8-78.4C-209.8-78.4-209.8-78.4-209.8-78.4z"/>
	</g>
	<path class="st0" d="M-208.2-41.6c-0.1-0.1-0.3-0.2-0.5,0l-0.2,0.1l-0.7,0.6c-0.1,0.1-0.2,0.1-0.3,0.2l-0.1,0.1
		c-0.3,0.2-0.6,0.4-1,0.6c-0.1,0-0.1,0.1-0.2,0.1c0,0-0.1,0-0.1,0.1l-0.3,0.1l-0.5,0.2c0,0-0.1,0-0.1,0l-0.4,0.2
		c-0.1,0-0.1,0.1-0.2,0.1c0,0-0.1,0-0.1,0l-0.2,0.1c0,0-0.1,0-0.1,0c0,0,0,0-0.1,0l-0.4,0.1c-0.5,0.1-1,0.3-1.5,0.3
		c-0.5,0.1-1.1,0.1-1.6,0.1c-0.5,0-1.1,0-1.6-0.1c-0.5-0.1-1-0.2-1.5-0.3l-0.4-0.1l-0.1,0l-0.2-0.1c0,0-0.1,0-0.1,0
		c-0.1,0-0.1,0-0.2-0.1l-0.3-0.1c0,0,0,0-0.1,0c0,0-0.1,0-0.1,0l-0.5-0.2l-0.3-0.1c0,0-0.1,0-0.1,0c-0.1,0-0.1-0.1-0.2-0.1l-0.3-0.1
		c-0.1,0-0.2-0.1-0.3-0.1l-0.3-0.2c-0.1,0-0.1-0.1-0.2-0.1l-0.1-0.1c-0.1-0.1-0.2-0.1-0.3-0.2l-0.3-0.2c0.2,0,0.3,0,0.5,0
		c0.1,0,0.2,0,0.2-0.1c0-0.1,0-0.2-0.1-0.3c-0.5-0.3-1-0.4-1.6-0.5c-0.2,0-0.3,0-0.3,0.3c0,0.3,0,0.6,0.1,0.9c0,0.2,0.1,0.5,0.2,0.7
		c0,0.1,0.1,0.2,0.2,0.2c0,0,0.1,0,0.1,0c0,0,0,0,0,0l0,0v0c0.1-0.2,0.1-0.4,0.1-0.6l0.3,0.3c0.1,0.1,0.2,0.1,0.3,0.2l0.1,0.1
		c0.1,0,0.1,0.1,0.2,0.1l0.3,0.2c0,0,0,0,0,0c0,0,0.1,0,0.1,0.1l0.4,0.3c0.1,0,0.1,0.1,0.2,0.1c0,0,0.1,0,0.1,0.1l0.3,0.2l0.5,0.3
		l0.1,0.1l0.4,0.2c0.1,0,0.2,0.1,0.2,0.1c0,0,0.1,0,0.1,0l0.2,0.1c0,0,0.1,0,0.1,0c0,0,0,0,0.1,0l0.4,0.1c0.1,0,0.1,0,0.2,0.1
		c0.2,0.1,0.4,0.1,0.6,0.2l0.3,0.1l0.5,0.1c1.2,0.2,2.4,0.1,3.6-0.1l0.5-0.1l0.3-0.1c0.2,0,0.4-0.1,0.6-0.2c0.1,0,0.1,0,0.2-0.1
		l0.5-0.2c0,0,0.1,0,0.1,0l0.2-0.1c0,0,0.1,0,0.1-0.1c0.1,0,0.2-0.1,0.2-0.1l0.4-0.2l0.1-0.1l0.5-0.3l0.3-0.2c0,0,0.1,0,0.1-0.1
		c0.1,0,0.1-0.1,0.2-0.1l0.3-0.2c0.1-0.1,0.2-0.1,0.2-0.2l0.3-0.2c0.1,0,0.1-0.1,0.2-0.1l0.1-0.1l0.3-0.2l0.4-0.4c0,0,0-0.1,0.1-0.1
		l0.3-0.4C-208.1-41.3-208-41.5-208.2-41.6z"/>
	<path id="Path_238" class="st0" d="M-198.5-64.1v-1.5c0-2-1.7-3.5-3.6-3.5h-29.1c-1.8,0-3.4,1.3-3.6,3.1c0,0.5-0.1,1.1,0,1.6l0,0
		v1.2l0,0v11c0,2,1.7,3.5,3.6,3.5h2.3c0.4,2.4,2.6,4,4.9,3.7c1.9-0.3,3.4-1.8,3.7-3.7h7.3c0.4,2.4,2.6,4,4.9,3.7
		c1.9-0.3,3.4-1.8,3.7-3.7l0,0h2.3c2,0,3.6-1.5,3.6-3.5v-7.4l0,0L-198.5-64.1L-198.5-64.1z M-231.6-57.7h-1.9
		c-0.1,0-0.2-0.1-0.2-0.2v-7.4c0-0.2,0.2-0.3,0.4-0.3h5.9c0.1,0,0.2,0.1,0.2,0.2v4.5C-227.1-59.2-229.1-57.7-231.6-57.7L-231.6-57.7
		z M-224.6-46.1c-1.8,0-3.2-1.4-3.2-3.2c0-1.8,1.4-3.2,3.2-3.2c1.8,0,3.2,1.4,3.2,3.2c0,0,0,0,0,0
		C-221.4-47.5-222.9-46.1-224.6-46.1z M-218.4-60.3c0,0.2-0.2,0.3-0.3,0.3c0,0,0,0,0,0h-6.9c-0.2,0-0.3-0.2-0.3-0.3c0,0,0,0,0,0v-5
		c0-0.2,0.2-0.3,0.3-0.3c0,0,0,0,0,0h6.9c0.2,0,0.3,0.2,0.3,0.3c0,0,0,0,0,0L-218.4-60.3z M-217.2-60.3v-5c0-0.2,0.2-0.3,0.3-0.3
		c0,0,0,0,0,0h6.9c0.2,0,0.3,0.2,0.3,0.3c0,0,0,0,0,0v5c0,0.2-0.2,0.3-0.3,0.3c0,0,0,0,0,0h-6.9C-217-59.9-217.2-60.1-217.2-60.3
		L-217.2-60.3z M-208.7-46.1c-1.8,0-3.2-1.4-3.2-3.2s1.4-3.2,3.2-3.2s3.2,1.4,3.2,3.2v0C-205.6-47.5-207-46.1-208.7-46.1
		C-208.7-46.1-208.7-46.1-208.7-46.1z M-202.7-60.3c0,0.2-0.1,0.3-0.3,0.3h-5.2c-0.1,0-0.3-0.1-0.3-0.3l0,0v-5l0,0
		c0-0.2,0.1-0.3,0.3-0.3h5.2c0.1,0,0.3,0.1,0.3,0.3C-202.7-65.3-202.7-60.3-202.7-60.3z"/>
</g>
</svg>
